<svg width="20" height="20" viewBox="0 0 20 20" fill="none" xmlns="http://www.w3.org/2000/svg">
<path d="M15.1912 13.2179C14.5384 12.5734 13.7234 12.5734 13.0748 13.2179C12.58 13.7085 12.0852 14.1992 11.5987 14.6981C11.4656 14.8353 11.3534 14.8644 11.1912 14.773C10.871 14.5983 10.5301 14.457 10.2224 14.2657C8.78787 13.3634 7.58621 12.2033 6.52176 10.8977C5.99369 10.2491 5.52384 9.55466 5.19535 8.77296C5.12883 8.61496 5.1413 8.51101 5.2702 8.38211C5.765 7.90394 6.24733 7.41329 6.73382 6.92265C7.41157 6.24074 7.41157 5.4424 6.72966 4.75633C6.34296 4.36548 5.95627 3.98294 5.56957 3.59209C5.17041 3.19292 4.7754 2.78959 4.37207 2.39458C3.71926 1.75841 2.90429 1.75841 2.25565 2.39874C1.75668 2.88938 1.27851 3.3925 0.771238 3.87483C0.301383 4.31974 0.0643768 4.86444 0.0144808 5.50061C-0.0645213 6.53595 0.189117 7.51308 0.546705 8.46527C1.27851 10.4362 2.39286 12.1867 3.74421 13.7917C5.56957 15.9621 7.74837 17.6794 10.2972 18.9185C11.4448 19.4757 12.634 19.9039 13.9272 19.9746C14.817 20.0245 15.5904 19.8 16.2099 19.1056C16.634 18.6316 17.1122 18.1992 17.5613 17.7459C18.2265 17.0723 18.2307 16.2574 17.5696 15.5921C16.7796 14.7979 15.9854 14.0079 15.1912 13.2179Z" fill="white"/>
<path d="M14.3974 9.90487L15.9317 9.64292C15.6906 8.23335 15.0253 6.95684 14.0149 5.94229C12.9463 4.87368 11.5949 4.20009 10.1064 3.99219L9.89014 5.53481C11.0419 5.69697 12.0897 6.21672 12.9172 7.04416C13.6989 7.82587 14.2103 8.81547 14.3974 9.90487Z" fill="white"/>
<path d="M16.7965 3.23493C15.0251 1.46362 12.784 0.345114 10.31 0L10.0938 1.54262C12.231 1.842 14.1686 2.81081 15.6987 4.3368C17.1499 5.78794 18.1021 7.62162 18.4472 9.63825L19.9815 9.3763C19.5782 7.0395 18.4763 4.91892 16.7965 3.23493Z" fill="white"/>
</svg>
